<svg xmlns="http://www.w3.org/2000/svg" width="862" height="648" viewBox="0 0 862 648">
<g>
<path d="M 0.00 0.00 L 862.00 0.00 L 862.00 648.00 L 0.00 648.00 ZM 509.24 562.02 C527.13,563.34 562.17,562.48 571.00,560.52 C587.95,556.74 605.62,550.06 617.00,543.15 C618.92,541.97 621.17,540.71 622.00,540.33 C628.86,537.19 648.80,518.96 656.28,509.00 C660.55,503.32 667.00,492.28 667.00,490.67 C667.00,490.00 667.58,488.56 668.28,487.47 C669.56,485.51 671.67,479.08 674.19,469.50 C676.14,462.07 675.92,434.54 673.83,424.50 C671.91,415.23 668.34,405.49 664.69,399.50 C660.79,393.10 659.03,390.86 653.10,384.75 C646.64,378.09 643.49,376.56 642.36,379.52 C641.98,380.50 644.24,383.62 648.77,388.40 C662.59,402.94 668.50,418.40 669.65,443.00 C670.28,456.58 667.99,474.75 664.96,480.24 C664.43,481.19 664.00,482.56 664.00,483.28 C664.00,485.09 657.98,496.69 653.68,503.16 C646.42,514.09 632.70,526.81 618.59,535.71 C613.02,539.22 593.48,549.00 592.03,549.00 C591.54,549.00 589.86,549.53 588.32,550.18 C586.77,550.82 583.03,551.96 580.00,552.70 C535.39,563.62 488.20,556.90 453.75,534.72 C448.33,531.23 447.81,529.14 451.75,526.79 C455.85,524.34 477.00,502.46 477.00,500.66 C477.00,500.35 478.17,498.38 479.59,496.29 C486.39,486.36 490.77,475.26 494.10,459.55 C495.87,451.18 496.13,447.20 495.76,434.55 C495.35,420.35 494.80,416.64 491.32,404.50 C489.53,398.24 485.92,388.94 484.58,387.14 C483.39,385.54 481.37,382.11 480.37,380.00 C477.87,374.75 462.03,357.06 453.72,350.24 C442.86,341.33 428.64,333.44 411.50,326.81 C401.79,323.05 386.89,319.45 376.86,318.45 C372.07,317.97 371.29,317.61 371.69,316.09 C371.94,315.10 373.73,313.54 375.66,312.63 C381.46,309.86 402.02,295.89 409.50,289.64 C434.75,268.53 444.46,247.00 441.04,219.75 C439.61,208.36 436.47,199.36 431.33,191.88 C428.08,187.17 428.02,186.90 429.72,185.15 C433.38,181.41 460.69,167.00 464.13,167.00 C464.85,167.00 467.25,166.36 469.47,165.58 C482.55,160.98 506.67,158.60 525.10,160.07 C537.35,161.05 538.15,161.17 548.00,163.39 C576.96,169.91 609.32,190.31 632.40,216.59 C639.99,225.24 647.70,234.57 649.77,237.63 C656.34,247.30 659.38,251.02 660.14,250.26 C660.63,249.77 660.91,232.52 660.76,211.62 L 660.50 173.86 L 656.00 172.07 C647.54,168.70 624.08,162.09 613.00,159.95 C604.10,158.23 591.12,156.16 582.00,155.00 C577.33,154.41 570.12,153.47 566.00,152.91 C541.32,149.60 493.84,151.23 472.50,156.12 C452.33,160.75 438.07,165.48 423.84,172.26 L 416.50 175.75 L 412.50 173.39 C394.08,162.52 378.49,157.80 344.50,152.82 C331.75,150.95 178.87,150.89 178.25,152.75 C178.02,153.44 178.35,154.00 178.97,154.00 C181.16,154.00 189.44,158.26 194.45,161.97 C201.52,167.20 207.75,174.26 210.05,179.61 C211.96,184.07 212.00,187.77 212.00,350.97 C212.00,483.06 211.74,518.37 210.74,520.64 C206.05,531.28 197.05,539.49 180.77,547.97 C178.17,549.33 176.39,550.79 176.83,551.23 C177.27,551.67 196.05,551.91 218.56,551.76 L 259.50 551.50 L 259.76 506.25 C259.93,477.24 260.38,461.00 261.01,461.00 C261.55,461.00 262.00,461.49 262.00,462.10 C262.00,462.70 262.60,464.62 263.33,466.35 C264.05,468.08 265.68,472.58 266.95,476.34 C271.60,490.20 279.87,502.93 292.45,515.62 C316.89,540.27 343.92,551.59 378.00,551.44 C394.27,551.37 403.00,550.02 417.39,545.34 L 428.28 541.79 L 432.89 543.79 C447.75,550.23 470.18,556.74 483.50,558.47 C486.25,558.82 490.63,559.58 493.24,560.15 C495.84,560.73 503.04,561.57 509.24,562.02 ZM 378.86 537.49 C360.19,540.79 343.65,538.60 325.39,530.43 C309.86,523.47 297.94,514.03 287.63,500.52 C284.26,496.10 280.96,491.60 280.29,490.50 C277.67,486.16 272.00,473.84 272.00,472.50 C272.00,471.71 271.34,469.59 270.54,467.78 C268.65,463.54 266.00,445.77 266.00,437.39 C266.00,433.80 266.72,426.95 267.60,422.18 C273.73,388.90 286.17,371.33 323.50,343.22 C325.83,341.46 335.91,334.99 341.00,331.98 C355.13,323.63 356.72,323.00 363.70,323.00 C367.36,323.00 371.74,323.41 373.43,323.91 C385.85,327.58 388.97,328.66 392.50,330.52 C408.10,338.71 422.51,353.38 431.27,370.00 C434.37,375.88 439.60,390.11 441.37,397.50 C445.58,415.08 447.18,440.79 445.01,456.00 C443.37,467.46 442.25,473.43 441.16,476.50 C440.57,478.15 439.09,482.42 437.86,486.00 C433.23,499.50 426.77,509.28 415.57,519.74 C404.59,530.00 395.00,534.63 378.86,537.49 ZM 266.40 400.27 C263.00,411.22 261.18,415.51 260.58,414.00 C260.25,413.17 260.10,355.12 260.24,285.00 L 260.50 157.50 L 294.00 157.53 C322.11,157.56 328.87,157.85 336.00,159.34 C357.10,163.74 369.50,169.86 379.75,180.92 C395.06,197.45 397.31,232.04 384.75,258.00 C375.72,276.68 363.26,291.16 331.40,320.04 C294.86,353.15 283.01,366.59 272.12,387.27 C269.87,391.55 267.29,397.40 266.40,400.27 Z" fill="rgb(22,42,53)"/>
<path d="M 509.24 562.02 C503.04,561.57 495.84,560.73 493.24,560.15 C490.63,559.58 486.25,558.82 483.50,558.47 C470.18,556.74 447.75,550.23 432.89,543.79 L 428.28 541.79 L 417.39 545.34 C403.00,550.02 394.27,551.37 378.00,551.44 C343.92,551.59 316.89,540.27 292.45,515.62 C279.87,502.93 271.60,490.20 266.95,476.34 C265.68,472.58 264.05,468.08 263.33,466.35 C262.60,464.62 262.00,462.70 262.00,462.10 C262.00,461.49 261.55,461.00 261.01,461.00 C260.38,461.00 259.93,477.24 259.76,506.25 L 259.50 551.50 L 218.56 551.76 C196.05,551.91 177.27,551.67 176.83,551.23 C176.39,550.79 178.17,549.33 180.77,547.97 C197.05,539.49 206.05,531.28 210.74,520.64 C211.74,518.37 212.00,483.06 212.00,350.97 C212.00,187.77 211.96,184.07 210.05,179.61 C207.75,174.26 201.52,167.20 194.45,161.97 C189.44,158.26 181.16,154.00 178.97,154.00 C178.35,154.00 178.02,153.44 178.25,152.75 C178.87,150.89 331.75,150.95 344.50,152.82 C378.49,157.80 394.08,162.52 412.50,173.39 L 416.50 175.75 L 423.84 172.26 C438.07,165.48 452.33,160.75 472.50,156.12 C493.84,151.23 541.32,149.60 566.00,152.91 C570.12,153.47 577.33,154.41 582.00,155.00 C591.12,156.16 604.10,158.23 613.00,159.95 C624.08,162.09 647.54,168.70 656.00,172.07 L 660.50 173.86 L 660.76 211.62 C660.91,232.52 660.63,249.77 660.14,250.26 C659.38,251.02 656.34,247.30 649.77,237.63 C647.70,234.57 639.99,225.24 632.40,216.59 C609.32,190.31 576.96,169.91 548.00,163.39 C538.15,161.17 537.35,161.05 525.10,160.07 C506.67,158.60 482.55,160.98 469.47,165.58 C467.25,166.36 464.85,167.00 464.13,167.00 C460.69,167.00 433.38,181.41 429.72,185.15 C428.02,186.90 428.08,187.17 431.33,191.88 C436.47,199.36 439.61,208.36 441.04,219.75 C444.46,247.00 434.75,268.53 409.50,289.64 C402.02,295.89 381.46,309.86 375.66,312.63 C373.73,313.54 371.94,315.10 371.69,316.09 C371.29,317.61 372.07,317.97 376.86,318.45 C386.89,319.45 401.79,323.05 411.50,326.81 C428.64,333.44 442.86,341.33 453.72,350.24 C462.03,357.06 477.87,374.75 480.37,380.00 C481.37,382.11 483.39,385.54 484.58,387.14 C485.92,388.94 489.53,398.24 491.32,404.50 C494.80,416.64 495.35,420.35 495.76,434.55 C496.13,447.20 495.87,451.18 494.10,459.55 C490.77,475.26 486.39,486.36 479.59,496.29 C478.17,498.38 477.00,500.35 477.00,500.66 C477.00,502.46 455.85,524.34 451.75,526.79 C447.81,529.14 448.33,531.23 453.75,534.72 C488.20,556.90 535.39,563.62 580.00,552.70 C583.03,551.96 586.77,550.82 588.32,550.18 C589.86,549.53 591.54,549.00 592.03,549.00 C593.48,549.00 613.02,539.22 618.59,535.71 C632.70,526.81 646.42,514.09 653.68,503.16 C657.98,496.69 664.00,485.09 664.00,483.28 C664.00,482.56 664.43,481.19 664.96,480.24 C667.99,474.75 670.28,456.58 669.65,443.00 C668.50,418.40 662.59,402.94 648.77,388.40 C644.24,383.62 641.98,380.50 642.36,379.52 C643.49,376.56 646.64,378.09 653.10,384.75 C659.03,390.86 660.79,393.10 664.69,399.50 C668.34,405.49 671.91,415.23 673.83,424.50 C675.92,434.54 676.14,462.07 674.19,469.50 C671.67,479.08 669.56,485.51 668.28,487.47 C667.58,488.56 667.00,490.00 667.00,490.67 C667.00,492.28 660.55,503.32 656.28,509.00 C648.80,518.96 628.86,537.19 622.00,540.33 C621.17,540.71 618.92,541.97 617.00,543.15 C605.62,550.06 587.95,556.74 571.00,560.52 C562.17,562.48 527.13,563.34 509.24,562.02 ZM 378.86 537.49 C395.00,534.63 404.59,530.00 415.57,519.74 C426.77,509.28 433.23,499.50 437.86,486.00 C439.09,482.42 440.57,478.15 441.16,476.50 C442.25,473.43 443.37,467.46 445.01,456.00 C447.18,440.79 445.58,415.08 441.37,397.50 C439.60,390.11 434.37,375.88 431.27,370.00 C422.51,353.38 408.10,338.71 392.50,330.52 C388.97,328.66 385.85,327.58 373.43,323.91 C371.74,323.41 367.36,323.00 363.70,323.00 C356.72,323.00 355.13,323.63 341.00,331.98 C335.91,334.99 325.83,341.46 323.50,343.22 C286.17,371.33 273.73,388.90 267.60,422.18 C266.72,426.95 266.00,433.80 266.00,437.39 C266.00,445.77 268.65,463.54 270.54,467.78 C271.34,469.59 272.00,471.71 272.00,472.50 C272.00,473.84 277.67,486.16 280.29,490.50 C280.96,491.60 284.26,496.10 287.63,500.52 C297.94,514.03 309.86,523.47 325.39,530.43 C343.65,538.60 360.19,540.79 378.86,537.49 ZM 266.40 400.27 C267.29,397.40 269.87,391.55 272.12,387.27 C283.01,366.59 294.86,353.15 331.40,320.04 C363.26,291.16 375.72,276.68 384.75,258.00 C397.31,232.04 395.06,197.45 379.75,180.92 C369.50,169.86 357.10,163.74 336.00,159.34 C328.87,157.85 322.11,157.56 294.00,157.53 L 260.50 157.50 L 260.24 285.00 C260.10,355.12 260.25,413.17 260.58,414.00 C261.18,415.51 263.00,411.22 266.40,400.27 Z" fill="rgb(229,232,233)"/>
</g>
</svg>
